<mxfile host="app.diagrams.net" modified="2023-05-17T03:08:07.544Z" agent="Mozilla/5.0 (Windows NT 10.0; Win64; x64) AppleWebKit/537.36 (KHTML, like Gecko) Chrome/113.0.0.0 Safari/537.36" etag="vSndfO2luyCBsqQ1Uldi" version="21.1.6" type="github">
  <diagram id="C5RBs43oDa-KdzZeNtuy" name="Page-1">
    <mxGraphModel dx="2390" dy="1273" grid="1" gridSize="10" guides="1" tooltips="1" connect="1" arrows="1" fold="1" page="1" pageScale="1" pageWidth="827" pageHeight="1169" math="0" shadow="0">
      <root>
        <mxCell id="WIyWlLk6GJQsqaUBKTNV-0" />
        <mxCell id="WIyWlLk6GJQsqaUBKTNV-1" parent="WIyWlLk6GJQsqaUBKTNV-0" />
        <mxCell id="D49RoCcQTnWWMwHeEupG-22" style="edgeStyle=orthogonalEdgeStyle;rounded=0;orthogonalLoop=1;jettySize=auto;html=1;entryX=0;entryY=0.25;entryDx=0;entryDy=0;" edge="1" parent="WIyWlLk6GJQsqaUBKTNV-1" source="D49RoCcQTnWWMwHeEupG-0" target="D49RoCcQTnWWMwHeEupG-21">
          <mxGeometry relative="1" as="geometry" />
        </mxCell>
        <mxCell id="D49RoCcQTnWWMwHeEupG-24" value="Bid" style="edgeLabel;html=1;align=center;verticalAlign=middle;resizable=0;points=[];fontSize=19;" vertex="1" connectable="0" parent="D49RoCcQTnWWMwHeEupG-22">
          <mxGeometry x="-0.3178" y="3" relative="1" as="geometry">
            <mxPoint as="offset" />
          </mxGeometry>
        </mxCell>
        <mxCell id="D49RoCcQTnWWMwHeEupG-0" value="Actor" style="shape=umlActor;verticalLabelPosition=bottom;verticalAlign=top;html=1;outlineConnect=0;" vertex="1" parent="WIyWlLk6GJQsqaUBKTNV-1">
          <mxGeometry x="175" y="260" width="30" height="60" as="geometry" />
        </mxCell>
        <mxCell id="D49RoCcQTnWWMwHeEupG-23" style="edgeStyle=orthogonalEdgeStyle;rounded=0;orthogonalLoop=1;jettySize=auto;html=1;entryX=0;entryY=0.75;entryDx=0;entryDy=0;" edge="1" parent="WIyWlLk6GJQsqaUBKTNV-1" source="D49RoCcQTnWWMwHeEupG-3" target="D49RoCcQTnWWMwHeEupG-21">
          <mxGeometry relative="1" as="geometry" />
        </mxCell>
        <mxCell id="D49RoCcQTnWWMwHeEupG-25" value="Bid" style="edgeLabel;html=1;align=center;verticalAlign=middle;resizable=0;points=[];fontSize=18;" vertex="1" connectable="0" parent="D49RoCcQTnWWMwHeEupG-23">
          <mxGeometry x="-0.3532" y="-1" relative="1" as="geometry">
            <mxPoint as="offset" />
          </mxGeometry>
        </mxCell>
        <mxCell id="D49RoCcQTnWWMwHeEupG-3" value="Actor" style="shape=umlActor;verticalLabelPosition=bottom;verticalAlign=top;html=1;outlineConnect=0;" vertex="1" parent="WIyWlLk6GJQsqaUBKTNV-1">
          <mxGeometry x="175" y="440" width="30" height="60" as="geometry" />
        </mxCell>
        <mxCell id="D49RoCcQTnWWMwHeEupG-4" value="B&amp;nbsp; member (Buyer)" style="text;html=1;strokeColor=none;fillColor=none;align=center;verticalAlign=middle;whiteSpace=wrap;rounded=0;" vertex="1" parent="WIyWlLk6GJQsqaUBKTNV-1">
          <mxGeometry x="140" y="230" width="100" height="20" as="geometry" />
        </mxCell>
        <mxCell id="D49RoCcQTnWWMwHeEupG-5" value="C member&lt;br&gt;(Buyer)" style="text;html=1;strokeColor=none;fillColor=none;align=center;verticalAlign=middle;whiteSpace=wrap;rounded=0;" vertex="1" parent="WIyWlLk6GJQsqaUBKTNV-1">
          <mxGeometry x="140" y="410" width="100" height="20" as="geometry" />
        </mxCell>
        <mxCell id="D49RoCcQTnWWMwHeEupG-57" style="edgeStyle=orthogonalEdgeStyle;rounded=0;orthogonalLoop=1;jettySize=auto;html=1;" edge="1" parent="WIyWlLk6GJQsqaUBKTNV-1" source="D49RoCcQTnWWMwHeEupG-9" target="D49RoCcQTnWWMwHeEupG-21">
          <mxGeometry relative="1" as="geometry" />
        </mxCell>
        <mxCell id="D49RoCcQTnWWMwHeEupG-9" value="&lt;b style=&quot;font-size: 15px;&quot;&gt;Token Id = 100 (Owner = A member)&lt;/b&gt;&lt;br style=&quot;font-size: 15px;&quot;&gt;&lt;b style=&quot;font-size: 15px;&quot;&gt;Minimum Price = 10USD&lt;br style=&quot;font-size: 15px;&quot;&gt;Buy Now Price = 100USD&lt;br style=&quot;font-size: 15px;&quot;&gt;&amp;nbsp; Duration =&amp;nbsp; &amp;nbsp;10 days&lt;/b&gt;&lt;br style=&quot;font-size: 15px;&quot;&gt;&lt;b style=&quot;font-size: 15px;&quot;&gt;&amp;nbsp; &amp;nbsp; &amp;nbsp; &amp;nbsp;&amp;nbsp;&lt;/b&gt;" style="rounded=0;whiteSpace=wrap;html=1;align=center;fillColor=#ffe6cc;strokeColor=#d79b00;labelPosition=center;verticalLabelPosition=middle;verticalAlign=middle;fontSize=15;" vertex="1" parent="WIyWlLk6GJQsqaUBKTNV-1">
          <mxGeometry x="545" y="90" width="330" height="110" as="geometry" />
        </mxCell>
        <mxCell id="D49RoCcQTnWWMwHeEupG-18" style="edgeStyle=orthogonalEdgeStyle;rounded=0;orthogonalLoop=1;jettySize=auto;html=1;fontSize=13;" edge="1" parent="WIyWlLk6GJQsqaUBKTNV-1" source="D49RoCcQTnWWMwHeEupG-14" target="D49RoCcQTnWWMwHeEupG-9">
          <mxGeometry relative="1" as="geometry" />
        </mxCell>
        <mxCell id="D49RoCcQTnWWMwHeEupG-20" value="&lt;font style=&quot;font-size: 15px;&quot;&gt;ON Seller&lt;/font&gt;" style="edgeLabel;html=1;align=center;verticalAlign=middle;resizable=0;points=[];" vertex="1" connectable="0" parent="D49RoCcQTnWWMwHeEupG-18">
          <mxGeometry x="0.208" y="-2" relative="1" as="geometry">
            <mxPoint as="offset" />
          </mxGeometry>
        </mxCell>
        <mxCell id="D49RoCcQTnWWMwHeEupG-14" value="Actor" style="shape=umlActor;verticalLabelPosition=bottom;verticalAlign=top;html=1;outlineConnect=0;" vertex="1" parent="WIyWlLk6GJQsqaUBKTNV-1">
          <mxGeometry x="1110" y="115" width="30" height="60" as="geometry" />
        </mxCell>
        <mxCell id="D49RoCcQTnWWMwHeEupG-15" value="A&amp;nbsp; member (Seller)" style="text;html=1;strokeColor=none;fillColor=none;align=center;verticalAlign=middle;whiteSpace=wrap;rounded=0;" vertex="1" parent="WIyWlLk6GJQsqaUBKTNV-1">
          <mxGeometry x="1080" y="90" width="100" height="20" as="geometry" />
        </mxCell>
        <mxCell id="D49RoCcQTnWWMwHeEupG-58" style="edgeStyle=orthogonalEdgeStyle;rounded=0;orthogonalLoop=1;jettySize=auto;html=1;entryX=0.5;entryY=0;entryDx=0;entryDy=0;" edge="1" parent="WIyWlLk6GJQsqaUBKTNV-1" source="D49RoCcQTnWWMwHeEupG-21" target="D49RoCcQTnWWMwHeEupG-32">
          <mxGeometry relative="1" as="geometry" />
        </mxCell>
        <mxCell id="D49RoCcQTnWWMwHeEupG-21" value="&lt;b style=&quot;font-size: 16px;&quot;&gt;Token Id = 100&lt;/b&gt;&lt;br style=&quot;font-size: 16px;&quot;&gt;&lt;b style=&quot;font-size: 16px;&quot;&gt;Minimum Price = 10USD&amp;nbsp; Buy Now Price = 100USD&amp;nbsp; Duration =&amp;nbsp; &amp;nbsp;10 days&lt;/b&gt;&lt;br style=&quot;font-size: 16px;&quot;&gt;&lt;b style=&quot;font-size: 16px;&quot;&gt;&amp;nbsp; &amp;nbsp; &amp;nbsp; &amp;nbsp;&lt;/b&gt;&lt;br style=&quot;font-size: 16px;&quot;&gt;&lt;div style=&quot;text-align: left; font-size: 16px;&quot;&gt;&lt;b style=&quot;font-size: 16px;&quot;&gt;B member offer :&amp;nbsp; 12 USD&amp;nbsp;&amp;nbsp;&lt;br style=&quot;font-size: 16px;&quot;&gt;&lt;/b&gt;&lt;b style=&quot;border-color: var(--border-color); font-size: 16px;&quot;&gt;C&amp;nbsp; member offer :&amp;nbsp; 50&amp;nbsp; USD&amp;nbsp;&amp;nbsp;&lt;/b&gt;&lt;b style=&quot;font-size: 16px;&quot;&gt;&lt;br style=&quot;font-size: 16px;&quot;&gt;&lt;/b&gt;&lt;/div&gt;" style="rounded=0;whiteSpace=wrap;html=1;align=center;fillColor=#ffe6cc;strokeColor=#d79b00;labelPosition=center;verticalLabelPosition=middle;verticalAlign=top;fontSize=16;" vertex="1" parent="WIyWlLk6GJQsqaUBKTNV-1">
          <mxGeometry x="490" y="290" width="440" height="180" as="geometry" />
        </mxCell>
        <mxCell id="D49RoCcQTnWWMwHeEupG-28" value="&lt;b&gt;&lt;font style=&quot;font-size: 20px;&quot;&gt;Token Info&amp;nbsp;&lt;/font&gt;&lt;/b&gt;" style="text;html=1;strokeColor=none;fillColor=none;align=center;verticalAlign=middle;whiteSpace=wrap;rounded=0;" vertex="1" parent="WIyWlLk6GJQsqaUBKTNV-1">
          <mxGeometry x="640" y="20" width="120" height="20" as="geometry" />
        </mxCell>
        <mxCell id="D49RoCcQTnWWMwHeEupG-59" style="edgeStyle=orthogonalEdgeStyle;rounded=0;orthogonalLoop=1;jettySize=auto;html=1;entryX=0.53;entryY=0.015;entryDx=0;entryDy=0;entryPerimeter=0;" edge="1" parent="WIyWlLk6GJQsqaUBKTNV-1" source="D49RoCcQTnWWMwHeEupG-32" target="D49RoCcQTnWWMwHeEupG-44">
          <mxGeometry relative="1" as="geometry" />
        </mxCell>
        <mxCell id="D49RoCcQTnWWMwHeEupG-32" value="&lt;b style=&quot;font-size: 15px;&quot;&gt;Token Id = 100&lt;/b&gt;&lt;br style=&quot;font-size: 15px;&quot;&gt;&lt;b style=&quot;font-size: 15px;&quot;&gt;Minimum Price = 10USD&amp;nbsp; Buy Now Price = &lt;font color=&quot;#ff1929&quot; style=&quot;font-size: 15px;&quot;&gt;50USD&amp;nbsp; &lt;/font&gt;Duration =&amp;nbsp; &amp;nbsp;10 days&lt;/b&gt;&lt;br style=&quot;font-size: 15px;&quot;&gt;&lt;b style=&quot;font-size: 15px;&quot;&gt;&amp;nbsp; &amp;nbsp; &amp;nbsp; &amp;nbsp;&amp;nbsp;&lt;/b&gt;&lt;br style=&quot;font-size: 15px;&quot;&gt;&lt;div style=&quot;text-align: left; font-size: 15px;&quot;&gt;&lt;b style=&quot;font-size: 15px;&quot;&gt;B member offer :&amp;nbsp; 12 USD&amp;nbsp;&amp;nbsp;&lt;br style=&quot;font-size: 15px;&quot;&gt;&lt;/b&gt;&lt;b style=&quot;border-color: var(--border-color); font-size: 15px;&quot;&gt;C&amp;nbsp; member offer :&amp;nbsp; 50&amp;nbsp; USD&amp;nbsp;&amp;nbsp;&lt;/b&gt;&lt;b style=&quot;font-size: 15px;&quot;&gt;&lt;br style=&quot;font-size: 15px;&quot;&gt;&lt;/b&gt;&lt;/div&gt;" style="rounded=0;whiteSpace=wrap;html=1;align=center;fillColor=#ffe6cc;strokeColor=#d79b00;labelPosition=center;verticalLabelPosition=middle;verticalAlign=top;fontSize=15;" vertex="1" parent="WIyWlLk6GJQsqaUBKTNV-1">
          <mxGeometry x="490" y="535" width="440" height="155" as="geometry" />
        </mxCell>
        <mxCell id="D49RoCcQTnWWMwHeEupG-40" style="edgeStyle=orthogonalEdgeStyle;rounded=0;orthogonalLoop=1;jettySize=auto;html=1;entryX=1.004;entryY=0.416;entryDx=0;entryDy=0;entryPerimeter=0;" edge="1" parent="WIyWlLk6GJQsqaUBKTNV-1" source="D49RoCcQTnWWMwHeEupG-33" target="D49RoCcQTnWWMwHeEupG-32">
          <mxGeometry relative="1" as="geometry" />
        </mxCell>
        <mxCell id="D49RoCcQTnWWMwHeEupG-33" value="Actor" style="shape=umlActor;verticalLabelPosition=bottom;verticalAlign=top;html=1;outlineConnect=0;" vertex="1" parent="WIyWlLk6GJQsqaUBKTNV-1">
          <mxGeometry x="1176" y="572" width="30" height="60" as="geometry" />
        </mxCell>
        <mxCell id="D49RoCcQTnWWMwHeEupG-34" value="A&amp;nbsp; member (Seller)" style="text;html=1;strokeColor=none;fillColor=none;align=center;verticalAlign=middle;whiteSpace=wrap;rounded=0;" vertex="1" parent="WIyWlLk6GJQsqaUBKTNV-1">
          <mxGeometry x="1141" y="537" width="100" height="20" as="geometry" />
        </mxCell>
        <mxCell id="D49RoCcQTnWWMwHeEupG-35" value="&lt;span style=&quot;font-size: 20px;&quot;&gt;&lt;b&gt;Seller&lt;/b&gt;&lt;/span&gt;" style="text;html=1;strokeColor=none;fillColor=none;align=center;verticalAlign=middle;whiteSpace=wrap;rounded=0;" vertex="1" parent="WIyWlLk6GJQsqaUBKTNV-1">
          <mxGeometry x="1070" y="30" width="120" height="20" as="geometry" />
        </mxCell>
        <mxCell id="D49RoCcQTnWWMwHeEupG-36" value="&lt;span style=&quot;font-size: 20px;&quot;&gt;&lt;b&gt;Buyer&lt;/b&gt;&lt;/span&gt;" style="text;html=1;strokeColor=none;fillColor=none;align=center;verticalAlign=middle;whiteSpace=wrap;rounded=0;" vertex="1" parent="WIyWlLk6GJQsqaUBKTNV-1">
          <mxGeometry x="170" y="40" width="120" height="20" as="geometry" />
        </mxCell>
        <mxCell id="D49RoCcQTnWWMwHeEupG-43" value="&lt;font style=&quot;font-size: 15px;&quot;&gt;Change the&amp;nbsp; Buy now Price&lt;/font&gt;" style="text;html=1;strokeColor=none;fillColor=none;align=center;verticalAlign=middle;whiteSpace=wrap;rounded=0;" vertex="1" parent="WIyWlLk6GJQsqaUBKTNV-1">
          <mxGeometry x="1006" y="562" width="100" height="30" as="geometry" />
        </mxCell>
        <mxCell id="D49RoCcQTnWWMwHeEupG-64" value="" style="edgeStyle=orthogonalEdgeStyle;rounded=0;orthogonalLoop=1;jettySize=auto;html=1;" edge="1" parent="WIyWlLk6GJQsqaUBKTNV-1" source="D49RoCcQTnWWMwHeEupG-44" target="D49RoCcQTnWWMwHeEupG-63">
          <mxGeometry relative="1" as="geometry" />
        </mxCell>
        <mxCell id="D49RoCcQTnWWMwHeEupG-44" value="&lt;div style=&quot;text-align: center;&quot;&gt;&lt;b style=&quot;font-size: 15px; background-color: initial;&quot;&gt;Token Id = 100 (Owmer = A member)&lt;/b&gt;&lt;/div&gt;&lt;font style=&quot;font-size: 15px;&quot;&gt;&lt;div style=&quot;text-align: center;&quot;&gt;&lt;b style=&quot;background-color: initial;&quot;&gt;&lt;span style=&quot;white-space: pre;&quot;&gt; &lt;/span&gt;Buy Now Price = 50USD&amp;nbsp;&lt;/b&gt;&lt;span style=&quot;background-color: initial; border-color: var(--border-color);&quot;&gt;&lt;b&gt;&amp;nbsp;&amp;nbsp;&lt;/b&gt;&lt;/span&gt;&lt;/div&gt;&lt;span style=&quot;background-color: initial; border-color: var(--border-color);&quot;&gt;&lt;b style=&quot;&quot;&gt;C member Can use&amp;nbsp;&amp;nbsp;&lt;/b&gt;&lt;/span&gt;Credit Card/&amp;nbsp; ETH/ BTC/&amp;nbsp; bank transfer&amp;nbsp;&amp;nbsp;&lt;/font&gt;" style="rounded=0;whiteSpace=wrap;html=1;align=left;fillColor=#ffe6cc;strokeColor=#d79b00;labelPosition=center;verticalLabelPosition=middle;verticalAlign=top;fontSize=18;" vertex="1" parent="WIyWlLk6GJQsqaUBKTNV-1">
          <mxGeometry x="475" y="800" width="450" height="135" as="geometry" />
        </mxCell>
        <mxCell id="D49RoCcQTnWWMwHeEupG-52" style="edgeStyle=orthogonalEdgeStyle;rounded=0;orthogonalLoop=1;jettySize=auto;html=1;entryX=0;entryY=0.5;entryDx=0;entryDy=0;" edge="1" parent="WIyWlLk6GJQsqaUBKTNV-1" source="D49RoCcQTnWWMwHeEupG-49" target="D49RoCcQTnWWMwHeEupG-44">
          <mxGeometry relative="1" as="geometry" />
        </mxCell>
        <mxCell id="D49RoCcQTnWWMwHeEupG-53" value="Buy now" style="edgeLabel;html=1;align=center;verticalAlign=middle;resizable=0;points=[];" vertex="1" connectable="0" parent="D49RoCcQTnWWMwHeEupG-52">
          <mxGeometry x="-0.1821" y="-1" relative="1" as="geometry">
            <mxPoint as="offset" />
          </mxGeometry>
        </mxCell>
        <mxCell id="D49RoCcQTnWWMwHeEupG-49" value="Actor" style="shape=umlActor;verticalLabelPosition=bottom;verticalAlign=top;html=1;outlineConnect=0;" vertex="1" parent="WIyWlLk6GJQsqaUBKTNV-1">
          <mxGeometry x="165" y="837.5" width="30" height="60" as="geometry" />
        </mxCell>
        <mxCell id="D49RoCcQTnWWMwHeEupG-50" value="C member&lt;br&gt;(Buyer)" style="text;html=1;strokeColor=none;fillColor=none;align=center;verticalAlign=middle;whiteSpace=wrap;rounded=0;" vertex="1" parent="WIyWlLk6GJQsqaUBKTNV-1">
          <mxGeometry x="130" y="820" width="100" height="20" as="geometry" />
        </mxCell>
        <mxCell id="D49RoCcQTnWWMwHeEupG-68" value="" style="edgeStyle=orthogonalEdgeStyle;rounded=0;orthogonalLoop=1;jettySize=auto;html=1;fontSize=14;" edge="1" parent="WIyWlLk6GJQsqaUBKTNV-1" source="D49RoCcQTnWWMwHeEupG-63" target="D49RoCcQTnWWMwHeEupG-67">
          <mxGeometry relative="1" as="geometry" />
        </mxCell>
        <mxCell id="D49RoCcQTnWWMwHeEupG-69" value="Pay failed" style="edgeLabel;html=1;align=center;verticalAlign=middle;resizable=0;points=[];fontSize=16;" vertex="1" connectable="0" parent="D49RoCcQTnWWMwHeEupG-68">
          <mxGeometry x="-0.2178" relative="1" as="geometry">
            <mxPoint as="offset" />
          </mxGeometry>
        </mxCell>
        <mxCell id="D49RoCcQTnWWMwHeEupG-76" style="edgeStyle=orthogonalEdgeStyle;rounded=0;orthogonalLoop=1;jettySize=auto;html=1;" edge="1" parent="WIyWlLk6GJQsqaUBKTNV-1" source="D49RoCcQTnWWMwHeEupG-63" target="D49RoCcQTnWWMwHeEupG-75">
          <mxGeometry relative="1" as="geometry" />
        </mxCell>
        <mxCell id="D49RoCcQTnWWMwHeEupG-77" value="&lt;font style=&quot;font-size: 18px;&quot;&gt;Pay success&lt;/font&gt;" style="edgeLabel;html=1;align=center;verticalAlign=middle;resizable=0;points=[];" vertex="1" connectable="0" parent="D49RoCcQTnWWMwHeEupG-76">
          <mxGeometry x="-0.2846" relative="1" as="geometry">
            <mxPoint as="offset" />
          </mxGeometry>
        </mxCell>
        <mxCell id="D49RoCcQTnWWMwHeEupG-63" value="" style="rhombus;whiteSpace=wrap;html=1;fontSize=18;align=left;verticalAlign=top;fillColor=#ffe6cc;strokeColor=#d79b00;rounded=0;" vertex="1" parent="WIyWlLk6GJQsqaUBKTNV-1">
          <mxGeometry x="660" y="1010" width="80" height="80" as="geometry" />
        </mxCell>
        <mxCell id="D49RoCcQTnWWMwHeEupG-67" value="END" style="ellipse;whiteSpace=wrap;html=1;fontSize=18;align=center;verticalAlign=middle;fillColor=#ffe6cc;strokeColor=#d79b00;rounded=0;" vertex="1" parent="WIyWlLk6GJQsqaUBKTNV-1">
          <mxGeometry x="961.33" y="1010" width="80" height="80" as="geometry" />
        </mxCell>
        <mxCell id="D49RoCcQTnWWMwHeEupG-75" value="&lt;div style=&quot;&quot;&gt;&lt;div style=&quot;border-color: var(--border-color); text-align: center;&quot;&gt;&lt;b style=&quot;border-color: var(--border-color); font-size: 15px; background-color: initial;&quot;&gt;Token Id = 100 (&lt;font color=&quot;#ff1929&quot;&gt;Owmer = C member&lt;/font&gt;)&lt;/b&gt;&lt;/div&gt;&lt;font style=&quot;border-color: var(--border-color); font-size: 15px;&quot;&gt;&lt;div style=&quot;border-color: var(--border-color); text-align: center;&quot;&gt;&lt;b style=&quot;border-color: var(--border-color); background-color: initial;&quot;&gt;&amp;nbsp;&lt;/b&gt;&lt;span style=&quot;border-color: var(--border-color); background-color: initial;&quot;&gt;&lt;b style=&quot;border-color: var(--border-color);&quot;&gt;&amp;nbsp;&amp;nbsp;&lt;/b&gt;&lt;/span&gt;&lt;/div&gt;&lt;/font&gt;&lt;span style=&quot;font-size: 15px;&quot;&gt;&lt;b&gt;Payment Comfire by wg, and call bc transfer token api&amp;nbsp; to transfer token from A member to C member&amp;nbsp;&amp;nbsp;&lt;br&gt;And the payment info (50 USD just in WG,&amp;nbsp; not in blockchain)&lt;/b&gt;&lt;/span&gt;&lt;/div&gt;" style="rounded=0;whiteSpace=wrap;html=1;align=left;fillColor=#ffe6cc;strokeColor=#d79b00;labelPosition=center;verticalLabelPosition=middle;verticalAlign=top;fontSize=18;" vertex="1" parent="WIyWlLk6GJQsqaUBKTNV-1">
          <mxGeometry x="470" y="1250" width="460" height="140" as="geometry" />
        </mxCell>
      </root>
    </mxGraphModel>
  </diagram>
</mxfile>
